<?xml version="1.0" encoding="UTF-8" standalone="no"?>
<!DOCTYPE svg PUBLIC "-//W3C//DTD SVG 1.1//EN"
 "http://www.w3.org/Graphics/SVG/1.1/DTD/svg11.dtd">
<!-- Generated by graphviz version 2.38.0 (20140413.2041)
 -->
<!-- Title: models_diagram Pages: 1 -->
<svg width="573pt" height="158pt"
 viewBox="0.00 0.00 573.20 158.00" xmlns="http://www.w3.org/2000/svg" xmlns:xlink="http://www.w3.org/1999/xlink">
<g id="graph0" class="graph" transform="scale(1 1) rotate(0) translate(4 154)">
<title>models_diagram</title>
<polygon fill="none" stroke="none" points="-4,4 -4,-154 569.196,-154 569.196,4 -4,4"/>
<!-- _diagram_info -->
<g id="node1" class="node"><title>_diagram_info</title>
<text text-anchor="start" x="8" y="-135.6" font-family="Times,serif" font-size="13.00">Models diagram</text>
<text text-anchor="start" x="8" y="-121.6" font-family="Times,serif" font-size="13.00">Date: Feb 27 2017 &#45; 15:46</text>
<text text-anchor="start" x="8" y="-107.6" font-family="Times,serif" font-size="13.00">Migration version: 20170227184357</text>
<text text-anchor="start" x="8" y="-93.6" font-family="Times,serif" font-size="13.00">Generated by RailRoady 1.5.2</text>
<text text-anchor="start" x="8" y="-79.6" font-family="Times,serif" font-size="13.00">http://railroady.prestonlee.com</text>
</g>
<!-- ApplicationRecord -->
<g id="node2" class="node"><title>ApplicationRecord</title>
<ellipse fill="none" stroke="black" cx="309" cy="-111" rx="77.1866" ry="18"/>
<text text-anchor="middle" x="309" y="-107.3" font-family="Times,serif" font-size="14.00">ApplicationRecord</text>
</g>
<!-- User -->
<g id="node3" class="node"><title>User</title>
<ellipse fill="none" stroke="black" cx="432" cy="-111" rx="27.0966" ry="18"/>
<text text-anchor="middle" x="432" y="-107.3" font-family="Times,serif" font-size="14.00">User</text>
</g>
<!-- Catched -->
<g id="node5" class="node"><title>Catched</title>
<ellipse fill="none" stroke="black" cx="476" cy="-18" rx="39.7935" ry="18"/>
<text text-anchor="middle" x="476" y="-14.3" font-family="Times,serif" font-size="14.00">Catched</text>
</g>
<!-- User&#45;&gt;Catched -->
<g id="edge1" class="edge"><title>User&#45;&gt;Catched</title>
<path fill="none" stroke="#e8a38c" d="M443.431,-86.3589C449.548,-73.7065 457.096,-58.0962 463.385,-45.09"/>
<ellipse fill="none" stroke="#e8a38c" cx="441.608" cy="-90.1299" rx="4.00002" ry="4.00002"/>
<polygon fill="#e8a38c" stroke="#e8a38c" points="463.551,-44.7467 471.955,-37.7027 465.728,-40.2452 467.904,-35.7438 467.904,-35.7438 467.904,-35.7438 465.728,-40.2452 463.853,-33.7849 463.551,-44.7467 463.551,-44.7467"/>
</g>
<!-- Pokemon -->
<g id="node4" class="node"><title>Pokemon</title>
<ellipse fill="none" stroke="black" cx="521" cy="-111" rx="44.393" ry="18"/>
<text text-anchor="middle" x="521" y="-107.3" font-family="Times,serif" font-size="14.00">Pokemon</text>
</g>
<!-- Pokemon&#45;&gt;Catched -->
<g id="edge2" class="edge"><title>Pokemon&#45;&gt;Catched</title>
<path fill="none" stroke="#8774fb" d="M509.119,-85.9739C502.906,-73.4092 495.29,-58.0096 488.93,-45.1464"/>
<ellipse fill="none" stroke="#8774fb" cx="510.973" cy="-89.7236" rx="4.00002" ry="4.00002"/>
<polygon fill="#8774fb" stroke="#8774fb" points="488.787,-44.8571 488.388,-33.8984 486.57,-40.3751 484.354,-35.8932 484.354,-35.8932 484.354,-35.8932 486.57,-40.3751 480.32,-37.8879 488.787,-44.8571 488.787,-44.8571"/>
</g>
</g>
</svg>
