<?xml version="1.0" encoding="UTF-8" standalone="no"?>
<!DOCTYPE svg PUBLIC "-//W3C//DTD SVG 1.1//EN"
 "http://www.w3.org/Graphics/SVG/1.1/DTD/svg11.dtd">
<!-- Generated by graphviz version 2.38.0 (20140413.2041)
 -->
<!-- Title: models_diagram Pages: 1 -->
<svg width="988pt" height="408pt"
 viewBox="0.00 0.00 988.00 408.00" xmlns="http://www.w3.org/2000/svg" xmlns:xlink="http://www.w3.org/1999/xlink">
<g id="graph0" class="graph" transform="scale(1 1) rotate(0) translate(4 404)">
<title>models_diagram</title>
<polygon fill="none" stroke="none" points="-4,4 -4,-404 984,-404 984,4 -4,4"/>
<!-- _diagram_info -->
<g id="node1" class="node"><title>_diagram_info</title>
<text text-anchor="start" x="8" y="-296.1" font-family="Times,serif" font-size="13.00">Models diagram</text>
<text text-anchor="start" x="8" y="-282.1" font-family="Times,serif" font-size="13.00">Date: Feb 27 2017 &#45; 15:46</text>
<text text-anchor="start" x="8" y="-268.1" font-family="Times,serif" font-size="13.00">Migration version: 20170227184357</text>
<text text-anchor="start" x="8" y="-254.1" font-family="Times,serif" font-size="13.00">Generated by RailRoady 1.5.2</text>
<text text-anchor="start" x="8" y="-240.1" font-family="Times,serif" font-size="13.00">http://railroady.prestonlee.com</text>
</g>
<!-- ApplicationRecord -->
<g id="node2" class="node"><title>ApplicationRecord</title>
<ellipse fill="none" stroke="black" cx="309" cy="-271.5" rx="77.1866" ry="18"/>
<text text-anchor="middle" x="309" y="-267.8" font-family="Times,serif" font-size="14.00">ApplicationRecord</text>
</g>
<!-- User -->
<g id="node3" class="node"><title>User</title>
<path fill="none" stroke="black" d="M416.5,-143.5C416.5,-143.5 705.5,-143.5 705.5,-143.5 711.5,-143.5 717.5,-149.5 717.5,-155.5 717.5,-155.5 717.5,-387.5 717.5,-387.5 717.5,-393.5 711.5,-399.5 705.5,-399.5 705.5,-399.5 416.5,-399.5 416.5,-399.5 410.5,-399.5 404.5,-393.5 404.5,-387.5 404.5,-387.5 404.5,-155.5 404.5,-155.5 404.5,-149.5 410.5,-143.5 416.5,-143.5"/>
<text text-anchor="middle" x="561" y="-384.3" font-family="Times,serif" font-size="14.00">User</text>
<polyline fill="none" stroke="black" points="404.5,-376.5 717.5,-376.5 "/>
<text text-anchor="start" x="412.5" y="-361.3" font-family="Times,serif" font-size="14.00">id :integer</text>
<text text-anchor="start" x="412.5" y="-346.3" font-family="Times,serif" font-size="14.00">email :character varying</text>
<text text-anchor="start" x="412.5" y="-331.3" font-family="Times,serif" font-size="14.00">encrypted_password :character varying</text>
<text text-anchor="start" x="412.5" y="-316.3" font-family="Times,serif" font-size="14.00">reset_password_token :character varying</text>
<text text-anchor="start" x="412.5" y="-301.3" font-family="Times,serif" font-size="14.00">reset_password_sent_at :timestamp without time zone</text>
<text text-anchor="start" x="412.5" y="-286.3" font-family="Times,serif" font-size="14.00">remember_created_at :timestamp without time zone</text>
<text text-anchor="start" x="412.5" y="-271.3" font-family="Times,serif" font-size="14.00">sign_in_count :integer</text>
<text text-anchor="start" x="412.5" y="-256.3" font-family="Times,serif" font-size="14.00">current_sign_in_at :timestamp without time zone</text>
<text text-anchor="start" x="412.5" y="-241.3" font-family="Times,serif" font-size="14.00">last_sign_in_at :timestamp without time zone</text>
<text text-anchor="start" x="412.5" y="-226.3" font-family="Times,serif" font-size="14.00">current_sign_in_ip :inet</text>
<text text-anchor="start" x="412.5" y="-211.3" font-family="Times,serif" font-size="14.00">last_sign_in_ip :inet</text>
<text text-anchor="start" x="412.5" y="-196.3" font-family="Times,serif" font-size="14.00">name :character varying</text>
<text text-anchor="start" x="412.5" y="-181.3" font-family="Times,serif" font-size="14.00">created_at :timestamp without time zone</text>
<text text-anchor="start" x="412.5" y="-166.3" font-family="Times,serif" font-size="14.00">updated_at :timestamp without time zone</text>
<text text-anchor="start" x="412.5" y="-151.3" font-family="Times,serif" font-size="14.00">role :integer</text>
</g>
<!-- Catched -->
<g id="node5" class="node"><title>Catched</title>
<path fill="none" stroke="black" d="M599,-0.5C599,-0.5 819,-0.5 819,-0.5 825,-0.5 831,-6.5 831,-12.5 831,-12.5 831,-94.5 831,-94.5 831,-100.5 825,-106.5 819,-106.5 819,-106.5 599,-106.5 599,-106.5 593,-106.5 587,-100.5 587,-94.5 587,-94.5 587,-12.5 587,-12.5 587,-6.5 593,-0.5 599,-0.5"/>
<text text-anchor="middle" x="709" y="-91.3" font-family="Times,serif" font-size="14.00">Catched</text>
<polyline fill="none" stroke="black" points="587,-83.5 831,-83.5 "/>
<text text-anchor="start" x="595" y="-68.3" font-family="Times,serif" font-size="14.00">id :integer</text>
<text text-anchor="start" x="595" y="-53.3" font-family="Times,serif" font-size="14.00">user_id :integer</text>
<text text-anchor="start" x="595" y="-38.3" font-family="Times,serif" font-size="14.00">pokemon_id :integer</text>
<text text-anchor="start" x="595" y="-23.3" font-family="Times,serif" font-size="14.00">created_at :timestamp without time zone</text>
<text text-anchor="start" x="595" y="-8.3" font-family="Times,serif" font-size="14.00">updated_at :timestamp without time zone</text>
</g>
<!-- User&#45;&gt;Catched -->
<g id="edge1" class="edge"><title>User&#45;&gt;Catched</title>
<path fill="none" stroke="#787d6f" d="M652.87,-136.419C657.875,-129.115 662.763,-121.981 667.437,-115.16"/>
<ellipse fill="none" stroke="#787d6f" cx="650.423" cy="-139.991" rx="4.00002" ry="4.00002"/>
<polygon fill="#787d6f" stroke="#787d6f" points="667.581,-114.949 676.946,-109.243 670.408,-110.824 673.234,-106.699 673.234,-106.699 673.234,-106.699 670.408,-110.824 669.522,-104.156 667.581,-114.949 667.581,-114.949"/>
</g>
<!-- Pokemon -->
<g id="node4" class="node"><title>Pokemon</title>
<path fill="none" stroke="black" d="M748,-218.5C748,-218.5 968,-218.5 968,-218.5 974,-218.5 980,-224.5 980,-230.5 980,-230.5 980,-312.5 980,-312.5 980,-318.5 974,-324.5 968,-324.5 968,-324.5 748,-324.5 748,-324.5 742,-324.5 736,-318.5 736,-312.5 736,-312.5 736,-230.5 736,-230.5 736,-224.5 742,-218.5 748,-218.5"/>
<text text-anchor="middle" x="858" y="-309.3" font-family="Times,serif" font-size="14.00">Pokemon</text>
<polyline fill="none" stroke="black" points="736,-301.5 980,-301.5 "/>
<text text-anchor="start" x="744" y="-286.3" font-family="Times,serif" font-size="14.00">id :integer</text>
<text text-anchor="start" x="744" y="-271.3" font-family="Times,serif" font-size="14.00">name :character varying</text>
<text text-anchor="start" x="744" y="-256.3" font-family="Times,serif" font-size="14.00">description :character varying</text>
<text text-anchor="start" x="744" y="-241.3" font-family="Times,serif" font-size="14.00">created_at :timestamp without time zone</text>
<text text-anchor="start" x="744" y="-226.3" font-family="Times,serif" font-size="14.00">updated_at :timestamp without time zone</text>
</g>
<!-- Pokemon&#45;&gt;Catched -->
<g id="edge2" class="edge"><title>Pokemon&#45;&gt;Catched</title>
<path fill="none" stroke="#11836f" d="M817.384,-211.62C796.73,-181.679 771.661,-145.338 750.838,-115.15"/>
<ellipse fill="none" stroke="#11836f" cx="819.85" cy="-215.195" rx="4.00002" ry="4.00002"/>
<polygon fill="#11836f" stroke="#11836f" points="750.762,-115.041 748.788,-104.254 747.923,-110.925 745.084,-106.81 745.084,-106.81 745.084,-106.81 747.923,-110.925 741.38,-109.365 750.762,-115.041 750.762,-115.041"/>
</g>
</g>
</svg>
